# Blender v2.76 (sub 0) OBJ File: ''
# www.blender.org
mtllib stairs_slopeinsidecorner.mtl
o back_Plane.005
v 0.500000 0.500000 0.500000
v 0.500000 -0.500000 0.500000
v -0.500000 0.500000 0.500000
v -0.500000 -0.500000 0.500000
vt 0.000000 0.000000
vt 1.000000 0.000000
vt 1.000000 1.000000
vt 0.000000 1.000000
vn -0.000000 -0.000000 1.000000
usemtl Material.001
s off
f 1/1/1 3/2/1 4/3/1 2/4/1
o Front_Plane.004
v 0.500000 0.500000 -0.500000
v 0.500000 -0.500000 -0.500000
v -0.500000 -0.500000 -0.500000
vt 1.000000 0.000000
vt 0.000000 0.000000
vt -0.000163 1.000101
vn -0.000000 -0.000000 1.000000
usemtl None
s off
f 7/5/2 6/6/2 5/7/2
o right_Plane.003
v -0.500000 0.500000 0.500000
v -0.500000 -0.500000 0.500000
v -0.500000 -0.500000 -0.500000
vt 0.999612 -0.000163
vt 0.000000 0.000000
vt 1.000070 1.000194
vn 1.000000 0.000000 0.000000
usemtl None
s off
f 9/8/3 10/9/3 8/10/3
o left_Plane.002
v 0.500000 0.500000 0.500000
v 0.500000 -0.500000 0.500000
v 0.500000 0.500000 -0.500000
v 0.500000 -0.500000 -0.500000
vt 0.000000 0.000000
vt 1.000000 0.000000
vt 1.000000 1.000000
vt 0.000000 1.000000
vn 1.000000 0.000000 0.000000
usemtl None_Untitled
s off
f 11/11/4 12/12/4 14/13/4 13/14/4
o Top_Plane.001
v -0.500000 0.500000 0.500000
v 0.500000 0.500000 0.500000
v -0.500000 -0.500000 -0.500000
v 0.500000 0.500000 -0.500000
vt 0.000029 0.999953
vt 0.000027 0.000008
vt 0.999994 1.000020
vt 0.000084 1.000055
vn -0.707100 0.707100 0.000000
vn 0.000000 0.707100 -0.707100
usemtl None
s off
f 18/15/5 17/16/5 16/17/5
f 17/16/6 15/18/6 16/17/6
o Bottom_Plane
v -0.500000 -0.500000 0.500000
v 0.500000 -0.500000 0.500000
v -0.500000 -0.500000 -0.500000
v 0.500000 -0.500000 -0.500000
vt 0.000000 0.000000
vt 1.000000 0.000000
vt 1.000000 1.000000
vt 0.000000 1.000000
vn 0.000000 -1.000000 0.000000
usemtl None_Untitled
s off
f 19/19/7 21/20/7 22/21/7 20/22/7
