# Blender v2.76 (sub 0) OBJ File: ''
# www.blender.org
mtllib c_door_a.mtl
o Cube_Cube.001
v 0.499000 1.499000 -0.049000
v 0.499000 1.499000 0.075000
v 0.499000 -0.499000 0.075000
v 0.499000 -0.499000 -0.049000
v -0.499000 1.499000 0.075000
v -0.499000 -0.499000 0.075000
v -0.499000 1.499000 -0.049000
v -0.499000 -0.499000 -0.049000
vt 0.842105 1.000000
vt 0.894737 1.000000
vt 0.894737 0.000000
vt 0.842105 0.000000
vt 0.421053 1.000000
vt 0.421053 0.000000
vt 0.947368 1.000000
vt 0.947368 0.000000
vt 0.000000 1.000000
vt 0.000000 0.000000
vt 1.000000 0.500000
vt 0.947368 0.500000
vt 1.000000 1.000000
vt 1.000000 0.000000
vn 1.000000 0.000000 0.000000
vn 0.000000 -0.000000 1.000000
vn -1.000000 0.000000 0.000000
vn 0.000000 0.000000 -1.000000
vn 0.000000 -1.000000 0.000000
vn 0.000000 1.000000 0.000000
usemtl None
s 1
f 1/1/1 2/2/1 3/3/1 4/4/1
f 2/5/2 5/1/2 6/4/2 3/6/2
f 5/2/3 7/7/3 8/8/3 6/3/3
f 7/9/4 1/5/4 4/6/4 8/10/4
f 4/11/5 3/12/5 6/7/5 8/13/5
f 7/14/6 5/8/6 2/12/6 1/11/6
